# xmcd
#
# Track frame offsets:
#	150
#	16504
#	30934
#	45917
#	61723
#	78352
#
# Disc length: 1237 seconds
#
# Revision: 0
# Processed by: cddbd v1.5.2PL0 Copyright (c) Steve Scherf et al.
# Submitted via: dBpowerAMP V4.0
#
DISCID=2b04d306
DTITLE=Reba McEntire - Forever Reba
DYEAR=1900
DGENRE=
TTITLE0=01 for my broken heart
TTITLE1=02 its your call
TTITLE2=03 they asked about you
TTITLE3=04 and still
TTITLE4=05 how was i to know
TTITLE5=06 all this time
EXTD=
EXTT0=
EXTT1=
EXTT2=
EXTT3=
EXTT4=
EXTT5=
PLAYORDER=
